<?xml version="1.0" standalone="no"?>
<!DOCTYPE svg PUBLIC "-//W3C//DTD SVG 20010904//EN"
 "http://www.w3.org/TR/2001/REC-SVG-20010904/DTD/svg10.dtd">
<svg version="1.0" xmlns="http://www.w3.org/2000/svg"
 width="512.000000pt" height="512.000000pt" viewBox="0 0 512.000000 512.000000"
 preserveAspectRatio="xMidYMid meet">
<metadata>
Created by potrace 1.16, written by Peter Selinger 2001-2019
</metadata>
<g transform="translate(0.000000,512.000000) scale(0.100000,-0.100000)"
fill="#000000" stroke="none">
<path d="M2561 3714 l-130 -125 -41 37 -40 37 -88 -80 c-48 -43 -132 -115
-186 -159 -55 -43 -123 -98 -153 -122 l-53 -44 0 146 c0 91 4 146 10 146 6 0
10 20 10 45 0 43 -1 45 -30 45 -27 0 -30 3 -30 30 l0 30 -98 0 -98 0 4 -35 c4
-33 3 -35 -27 -35 -29 0 -31 -3 -31 -35 0 -24 5 -35 15 -35 13 0 15 -32 15
-228 l0 -228 -131 -103 -131 -104 41 -26 c37 -23 41 -30 41 -67 0 -38 -4 -44
-64 -92 -66 -54 -113 -102 -70 -72 47 32 182 156 492 449 177 168 327 307 332
309 12 4 80 -47 80 -60 0 -5 -14 2 -31 16 -17 14 -35 26 -40 26 -5 0 -85 -73
-177 -162 -175 -170 -505 -477 -630 -587 -53 -47 -69 -67 -62 -76 6 -7 8 -20
4 -29 -5 -14 5 -16 80 -16 l86 0 -2 -362 -3 -363 -46 -6 c-80 -12 -121 -48
-100 -88 13 -24 -8 -34 -54 -25 -36 6 -46 -1 -97 -66 -23 -29 -30 -33 -45 -24
-16 10 -18 32 -21 209 l-2 198 45 -6 c25 -4 56 -9 70 -13 39 -10 30 12 -16 38
l-42 23 94 5 94 5 -57 28 c-31 15 -98 38 -147 51 -50 12 -93 25 -96 28 -15 14
88 42 175 47 l95 6 -77 40 -78 40 77 5 76 5 -116 48 c-99 41 -139 68 -124 84
2 2 42 -6 87 -17 46 -10 86 -18 88 -16 2 2 -22 25 -52 52 -53 45 -106 110
-106 129 0 5 15 -5 32 -22 18 -18 47 -35 63 -39 30 -7 30 -7 -15 40 -40 42
-42 46 -21 46 22 0 21 2 -12 40 -36 42 -63 113 -76 197 l-7 48 -8 -58 c-4 -31
-20 -83 -36 -114 -18 -35 -25 -60 -19 -64 5 -3 -11 -29 -38 -59 l-47 -52 43 4
c37 3 41 2 25 -9 -11 -7 -28 -19 -39 -28 -19 -15 -19 -15 10 -10 29 6 29 5
-10 -19 -22 -14 -44 -27 -50 -27 -5 -1 5 -4 23 -8 l33 -6 -58 -45 -58 -45 85
-5 85 -5 -85 -37 c-47 -20 -94 -40 -105 -45 -14 -5 1 -9 48 -11 l69 -3 -59
-39 c-32 -21 -71 -50 -88 -64 l-30 -25 27 -1 c15 0 50 5 77 11 102 22 96 5
-15 -41 l-109 -45 50 -8 c28 -4 86 -5 130 -2 l80 6 -45 -29 c-25 -16 -51 -36
-59 -45 -12 -15 -11 -17 5 -17 11 0 46 7 79 15 33 8 63 14 68 15 4 0 7 -81 7
-180 l0 -181 -65 -29 c-36 -16 -65 -32 -65 -35 0 -3 63 -5 140 -5 130 0 140 1
140 19 0 10 7 24 15 31 8 7 15 21 15 31 0 26 36 25 43 0 3 -11 -2 -26 -12 -35
-16 -14 -20 -16 -42 -16 -6 0 -9 -14 -7 -32 3 -29 7 -33 36 -36 24 -2 32 -8
32 -23 0 -18 -10 -19 -285 -19 -180 0 -285 -4 -285 -10 0 -5 12 -13 26 -16 14
-4 844 -5 1844 -2 1409 3 1822 6 1832 16 9 9 -43 12 -245 12 -244 0 -258 1
-277 20 -13 13 -33 20 -59 20 -35 0 -39 3 -44 29 -4 16 -14 31 -24 34 -10 3
114 5 276 6 l294 1 -23 25 c-30 31 -98 65 -133 65 l-27 0 0 155 0 155 76 0
c56 0 75 3 72 13 -4 9 -72 13 -279 17 l-274 5 281 3 c340 2 346 4 263 78 -30
27 -84 79 -120 117 -36 37 -73 67 -82 67 -9 0 -56 20 -104 45 -80 41 -93 45
-160 45 l-73 0 0 150 0 150 80 0 81 0 -16 30 c-9 17 -24 30 -34 30 -20 0 -113
82 -299 264 l-113 111 3 102 3 103 43 0 42 0 0 -130 0 -130 40 -20 c23 -12
102 -77 177 -145 75 -69 139 -123 141 -121 2 3 -6 18 -19 35 -12 17 -22 44
-22 60 0 27 -15 42 -129 131 l-128 101 0 130 c0 108 2 129 15 129 10 0 15 10
15 30 l0 30 -95 0 c-57 0 -95 4 -95 10 0 6 23 10 50 10 l50 0 0 35 0 35 -60 0
-60 0 0 -32 c0 -49 -12 -61 -54 -56 -32 4 -36 2 -36 -20 0 -13 5 -33 11 -45
l12 -22 -24 21 c-49 42 -416 372 -493 442 -43 39 -82 72 -87 72 -4 0 -66 -56
-138 -126z m414 -304 c66 -63 222 -214 346 -337 l226 -223 -89 0 c-49 0 -98 5
-109 11 -11 6 -71 50 -132 98 -62 48 -182 138 -267 201 l-155 115 38 3 c46 4
47 16 5 42 -31 19 -33 23 -38 92 l-5 73 -87 3 -87 3 -3 -30 -3 -31 -57 48
c-31 26 -57 49 -57 52 0 3 41 40 90 82 l89 77 87 -82 c48 -45 142 -134 208
-197z m-50 171 c44 -36 145 -124 225 -195 125 -112 145 -134 148 -163 2 -18
-1 -33 -7 -33 -6 0 -120 108 -253 241 -238 235 -273 282 -113 150z m-1157 62
c-21 -2 -55 -2 -75 0 -21 2 -4 4 37 4 41 0 58 -2 38 -4z m62 -212 c0 -106 -4
-169 -12 -188 -11 -24 -14 -4 -18 147 l-5 175 -77 3 c-111 4 -97 22 17 22 l95
0 0 -159z m480 44 c-47 -47 -89 -85 -95 -85 -5 0 29 38 76 85 47 47 90 85 95
85 5 0 -29 -38 -76 -85z m-540 -95 c0 -107 -4 -152 -12 -159 -7 -6 -30 -24
-50 -42 l-38 -31 0 191 0 191 50 0 50 0 0 -150z m965 -126 c294 -235 458 -372
463 -385 5 -12 -370 -12 -400 0 -13 5 -82 60 -154 123 -72 62 -185 158 -252
213 -67 55 -122 104 -122 108 0 4 39 46 88 92 74 70 89 81 102 70 8 -7 132
-106 275 -221z m25 137 c0 -33 3 -68 7 -78 5 -13 -5 -8 -35 15 -33 26 -42 40
-42 64 0 18 -8 37 -17 44 -16 12 -11 13 35 14 l52 0 0 -59z m604 -77 c9 -25 7
-194 -3 -194 -16 0 -21 30 -21 121 0 83 9 111 24 73z m126 6 c0 -5 -18 -10
-39 -10 -22 0 -43 5 -46 10 -4 6 12 10 39 10 25 0 46 -4 46 -10z m-1147 -154
c55 -45 106 -87 116 -95 15 -13 1 -29 -157 -165 -232 -201 -212 -188 -273
-184 l-52 3 172 160 c108 100 181 160 194 161 40 1 47 4 47 17 1 6 -52 63
-117 125 -91 87 -108 107 -73 86 25 -15 89 -64 143 -108z m-74 -52 c11 -10
-19 -37 -160 -150 -282 -223 -301 -238 -290 -242 16 -5 115 52 191 110 58 45
54 40 -32 -42 -54 -50 -98 -96 -98 -101 0 -5 9 -9 20 -9 13 0 20 -7 20 -20 0
-19 7 -20 90 -20 73 0 90 -3 90 -15 0 -13 -28 -15 -195 -15 l-195 0 0 -159 c0
-96 -4 -162 -10 -166 -32 -20 6 -25 185 -25 l195 0 0 -100 0 -100 -90 0 -90 0
0 -190 0 -190 85 0 85 0 0 -89 c0 -74 -3 -90 -17 -95 -28 -11 -35 9 -14 45 24
43 16 66 -37 103 -32 22 -47 26 -71 21 -20 -4 -38 -1 -52 8 -23 17 -68 8 -100
-19 -8 -8 -25 -14 -36 -14 -13 0 -29 -13 -42 -36 -25 -42 -26 -52 -4 -76 15
-17 14 -18 -45 -18 l-62 0 0 303 c0 326 -10 920 -15 926 -22 23 -25 -54 -25
-620 l0 -609 -35 0 -35 0 0 518 c0 284 -3 527 -6 540 -5 19 -13 22 -53 22
l-46 1 25 20 c115 96 415 362 548 487 l163 153 72 -62 c40 -35 78 -68 86 -75z
m450 -267 l179 -158 2 -314 1 -315 -397 0 -396 0 4 304 3 305 44 38 c236 202
358 302 368 300 7 -1 93 -73 192 -160z m-589 80 c0 -2 -10 -12 -22 -23 l-23
-19 19 23 c18 21 26 27 26 19z m1195 -123 c42 -19 60 -23 68 -15 6 6 36 11 67
11 47 0 65 -5 106 -32 l49 -33 -308 -3 c-278 -2 -339 -8 -291 -26 9 -4 14 -9
11 -12 -9 -9 -85 39 -142 90 l-50 45 216 1 c213 0 218 0 274 -26z m325 -699
l0 -545 -21 0 c-12 0 -37 18 -58 42 -33 37 -42 41 -93 46 -41 3 -62 0 -79 -11
-17 -12 -27 -13 -42 -6 -27 15 -121 2 -140 -19 -8 -9 -18 -27 -21 -39 -7 -22
-12 -23 -122 -23 l-114 0 0 544 0 545 53 4 c28 2 184 4 345 5 l292 2 0 -545z
m-1703 263 c-1 -40 -3 -8 -3 72 0 80 2 112 3 73 2 -40 2 -106 0 -145z m-159
65 c-3 -122 -5 -138 -20 -141 -16 -3 -18 9 -18 137 0 135 1 141 20 141 20 0
20 -5 18 -137z m112 2 l0 -135 -30 0 -30 0 0 135 0 135 30 0 30 0 0 -135z
m143 128 c-13 -2 -33 -2 -45 0 -13 2 -3 4 22 4 25 0 35 -2 23 -4z m27 -143 l0
-120 -45 0 -45 0 0 120 0 120 45 0 45 0 0 -120z m1827 -130 c26 -17 72 -38
101 -46 38 -11 56 -23 66 -42 18 -35 56 -69 133 -121 34 -22 64 -44 66 -48 9
-14 -281 1 -295 15 -8 8 -51 12 -140 12 l-128 0 0 71 c0 81 -7 79 108 28 56
-26 75 -29 163 -29 l99 0 -15 24 c-15 22 -24 24 -108 28 -78 3 -104 9 -169 38
-75 33 -78 36 -78 67 l0 33 75 0 c66 0 80 -4 122 -30z m-1710 -272 c-3 -8 -6
-5 -6 6 -1 11 2 17 5 13 3 -3 4 -12 1 -19z m123 -243 l0 -225 -40 0 -40 0 0
225 0 225 40 0 40 0 0 -225z m590 0 l0 -225 -75 0 -75 0 0 225 0 225 75 0 75
0 0 -225z m-750 -30 c0 -238 -1 -245 -20 -245 -19 0 -20 7 -20 184 0 220 7
306 26 306 11 0 14 -45 14 -245z m40 5 c0 -147 -4 -230 -10 -230 -6 0 -10 83
-10 230 0 147 4 230 10 230 6 0 10 -83 10 -230z m517 -72 c-1 -57 -3 -11 -3
102 0 113 2 159 3 103 2 -57 2 -149 0 -205z m-727 168 c0 -116 -1 -125 -20
-131 -11 -3 -24 -3 -30 0 -6 4 -10 58 -10 131 l0 124 30 0 30 0 0 -124z m90
-6 l0 -130 -25 0 -25 0 0 130 0 130 25 0 25 0 0 -130z m300 -75 c0 -130 -4
-205 -10 -205 -6 0 -10 75 -10 205 0 130 4 205 10 205 6 0 10 -75 10 -205z
m89 199 l31 -7 -2 -191 -3 -191 -42 -3 -43 -3 0 200 c0 219 -3 207 59 195z
m71 -194 c0 -110 -3 -200 -7 -200 -5 0 -7 51 -7 113 1 61 2 151 3 200 1 48 3
87 6 87 3 0 5 -90 5 -200z m118 193 l-48 -4 -3 -162 -3 -162 -2 168 -2 167 53
-2 52 -2 -47 -3z m1142 -159 l0 -155 -42 3 -43 3 -3 153 -3 152 46 0 45 0 0
-156z m114 110 c3 -26 6 -96 6 -155 l0 -109 -50 0 -50 0 0 155 0 155 44 0 43
0 7 -46z m103 -11 c-2 -32 -2 -92 3 -133 l7 -75 2 110 c1 123 7 155 27 155 11
0 14 -30 14 -155 l0 -155 -65 0 -65 0 0 155 0 155 41 0 42 0 -6 -57z m-1357
-113 c0 -117 -2 -130 -17 -129 -11 0 -13 3 -5 6 9 3 12 39 12 129 0 68 2 124
5 124 3 0 5 -58 5 -130z m-1264 -97 c9 -16 25 -33 33 -40 13 -10 9 -12 -25
-13 -39 0 -41 2 -36 25 4 22 1 25 -27 25 -23 0 -29 4 -25 15 10 26 60 18 80
-12z m484 -68 c17 -9 30 -20 30 -26 0 -5 -10 -3 -22 5 -29 21 -43 20 -65 -3
-13 -14 -30 -19 -56 -18 -20 1 -35 7 -33 12 2 6 16 9 31 8 15 -1 39 7 53 17
30 24 26 24 62 5z m1614 -20 c11 -8 30 -15 42 -15 13 0 26 -4 29 -10 3 -6 -5
-10 -19 -10 -13 0 -26 -6 -29 -12 -3 -9 -12 -6 -30 11 -20 18 -33 22 -54 17
l-28 -6 24 20 c27 24 39 24 65 5z m-2172 -23 c-19 -6 -44 6 -37 18 4 7 14 6
28 -2 14 -7 17 -13 9 -16z m706 19 c10 -6 10 -10 -3 -21 -8 -7 -15 -10 -15 -7
0 3 -3 12 -6 21 -7 17 3 20 24 7z m1272 -36 c25 -27 21 -32 -12 -14 -17 9 -24
8 -34 -5 -16 -23 -28 -3 -14 24 14 27 32 25 60 -5z m-642 8 c-10 -2 -28 -2
-40 0 -13 2 -5 4 17 4 22 1 32 -1 23 -4z m-338 -58 c0 -11 -11 -15 -40 -15
-29 0 -40 4 -40 15 0 11 11 15 40 15 29 0 40 -4 40 -15z m410 0 c0 -13 -28
-15 -195 -15 -178 0 -208 4 -188 23 3 4 91 7 195 7 160 0 188 -2 188 -15z
m174 0 c-5 -11 -23 -15 -75 -15 -55 0 -69 3 -69 15 0 12 15 15 75 15 62 0 73
-2 69 -15z m236 2 c-39 -10 -46 -16 -50 -42 l-5 -30 -502 -3 c-498 -2 -501 -2
-496 18 5 20 13 20 454 20 416 0 474 3 439 25 -29 18 0 25 98 24 101 -1 105
-1 62 -12z"/>
<path d="M2057 3133 c-4 -3 -7 -17 -7 -30 0 -21 5 -23 45 -23 43 0 45 1 45 30
0 28 -2 30 -38 30 -21 0 -42 -3 -45 -7z"/>
<path d="M2501 2956 c-9 -11 10 -30 92 -97 57 -46 114 -92 128 -101 23 -16 16
-17 -157 -17 -142 -1 -184 -4 -200 -16 -17 -13 4 -14 188 -15 156 0 207 3 211
13 2 7 20 -4 45 -29 l42 -42 0 -276 c0 -177 4 -276 10 -276 6 0 10 102 10 288
l0 287 -98 82 c-54 45 -130 111 -169 147 -39 36 -75 66 -81 66 -5 0 -15 -6
-21 -14z"/>
<path d="M2167 2673 c-12 -11 -8 -583 3 -583 6 0 10 105 10 295 0 162 -1 295
-3 295 -2 0 -7 -3 -10 -7z"/>
<path d="M2360 2475 c0 -123 -4 -195 -10 -195 -5 0 -10 -4 -10 -10 0 -6 72
-10 195 -10 l195 0 0 205 0 205 -185 0 -185 0 0 -195z m138 146 c1 -1 2 -19 2
-41 l0 -40 -50 0 -50 0 0 46 0 45 48 -5 c26 -2 48 -5 50 -5z m192 -36 l0 -45
-50 0 -50 0 0 45 0 45 50 0 50 0 0 -45z m-190 -122 c0 -60 -47 -156 -79 -161
-20 -3 -21 1 -21 102 l0 106 50 0 50 0 0 -47z m190 -58 l0 -105 -44 0 c-54 0
-56 4 -56 121 l0 89 50 0 50 0 0 -105z"/>
<path d="M3152 2438 l3 -173 213 -1 c173 -1 212 1 212 12 0 8 -4 14 -10 14 -6
0 -10 60 -10 160 l0 160 -205 0 -205 0 2 -172z m236 125 c-10 -2 -28 -2 -40 0
-13 2 -5 4 17 4 22 1 32 -1 23 -4z m115 0 c-13 -2 -33 -2 -45 0 -13 2 -3 4 22
4 25 0 35 -2 23 -4z m-316 -200 c-2 -38 -3 -7 -3 67 0 74 1 105 3 68 2 -38 2
-98 0 -135z m100 0 c-2 -38 -3 -7 -3 67 0 74 1 105 3 68 2 -38 2 -98 0 -135z
m113 51 l0 -114 -34 0 c-32 0 -34 2 -40 46 -3 26 -6 79 -6 118 l0 72 40 -4 40
-4 0 -114z m120 1 l0 -115 -40 0 -40 0 0 115 0 115 40 0 40 0 0 -115z"/>
<path d="M3155 1902 c1 -86 2 -169 3 -184 l2 -28 215 0 215 0 0 185 0 185
-217 0 -218 0 0 -158z m383 101 c-16 -2 -40 -2 -55 0 -16 2 -3 4 27 4 30 0 43
-2 28 -4z m-251 -230 c-2 -38 -3 -7 -3 67 0 74 1 105 3 68 2 -38 2 -98 0 -135z
m143 72 l0 -125 -40 0 -40 0 0 125 0 125 40 0 40 0 0 -125z m130 0 l0 -125
-50 0 -50 0 0 125 0 125 50 0 50 0 0 -125z m-373 -18 c-2 -23 -3 -1 -3 48 0
50 1 68 3 42 2 -26 2 -67 0 -90z"/>
<path d="M3800 3379 c-85 -14 -80 -26 15 -34 48 -4 89 -5 92 -2 2 3 2 15 -2
26 -7 23 -18 24 -105 10z"/>
<path d="M1149 2135 c18 -9 63 -18 100 -21 l66 -4 -34 15 c-18 9 -63 18 -100
21 l-66 4 34 -15z"/>
<path d="M1885 1360 c-60 -4 -165 -8 -232 -9 -69 0 -125 -5 -128 -11 -4 -7 71
-10 218 -10 177 0 232 -3 260 -15 31 -13 116 -15 549 -15 335 0 525 4 548 11
23 7 233 10 620 10 322 0 614 3 650 8 40 5 -149 9 -500 10 -444 1 -582 4 -645
16 -64 11 -193 14 -655 13 -316 -1 -624 -5 -685 -8z"/>
</g>
</svg>