<svg width="28" height="28" viewBox="0 0 28 28" fill="none" xmlns="http://www.w3.org/2000/svg">
<path d="M23.7729 24.5C24.3697 24.5 24.942 24.2629 25.3639 23.841C25.7859 23.419 26.0229 22.8467 26.0229 22.25V5.75C26.0229 5.15326 25.7859 4.58097 25.3639 4.15901C24.942 3.73705 24.3697 3.5 23.7729 3.5H4.27295C3.67621 3.5 3.10392 3.73705 2.68196 4.15901C2.26 4.58097 2.02295 5.15326 2.02295 5.75V22.25C2.02295 22.8467 2.26 23.419 2.68196 23.841C3.10392 24.2629 3.67621 24.5 4.27295 24.5H23.7729ZM8.02295 7.625C8.26935 7.62474 8.51338 7.67304 8.7411 7.76715C8.96881 7.86126 9.17575 7.99933 9.35007 8.17347C9.52439 8.3476 9.66268 8.55439 9.75703 8.78201C9.85139 9.00962 9.89995 9.2536 9.89995 9.5C9.89995 9.99728 9.70241 10.4742 9.35077 10.8258C8.99914 11.1775 8.52223 11.375 8.02495 11.375C7.77855 11.3753 7.53452 11.327 7.3068 11.2328C7.07909 11.1387 6.87215 11.0007 6.69783 10.8265C6.52351 10.6524 6.38522 10.4456 6.29087 10.218C6.19651 9.99038 6.14795 9.7464 6.14795 9.5C6.14795 9.00272 6.34549 8.5258 6.69712 8.17417C7.04875 7.82254 7.52567 7.625 8.02295 7.625ZM8.02295 12.125C8.26935 12.1247 8.51338 12.173 8.7411 12.2672C8.96881 12.3613 9.17575 12.4993 9.35007 12.6735C9.52439 12.8476 9.66268 13.0544 9.75703 13.282C9.85139 13.5096 9.89995 13.7536 9.89995 14C9.89995 14.2464 9.85139 14.4904 9.75703 14.718C9.66268 14.9456 9.52439 15.1524 9.35007 15.3265C9.17575 15.5007 8.96881 15.6387 8.7411 15.7328C8.51338 15.827 8.26935 15.8753 8.02295 15.875C7.52567 15.875 7.04875 15.6775 6.69712 15.3258C6.34549 14.9742 6.14795 14.4973 6.14795 14C6.14795 13.5027 6.34549 13.0258 6.69712 12.6742C7.04875 12.3225 7.52567 12.125 8.02295 12.125ZM8.02295 16.625C8.26935 16.6247 8.51338 16.673 8.7411 16.7672C8.96881 16.8613 9.17575 16.9993 9.35007 17.1735C9.52439 17.3476 9.66268 17.5544 9.75703 17.782C9.85139 18.0096 9.89995 18.2536 9.89995 18.5C9.89995 18.7464 9.85139 18.9904 9.75703 19.218C9.66268 19.4456 9.52439 19.6524 9.35007 19.8265C9.17575 20.0007 8.96881 20.1387 8.7411 20.2328C8.51338 20.327 8.26935 20.3753 8.02295 20.375C7.52567 20.375 7.04875 20.1775 6.69712 19.8258C6.34549 19.4742 6.14795 18.9973 6.14795 18.5C6.14795 18.0027 6.34549 17.5258 6.69712 17.1742C7.04875 16.8225 7.52567 16.625 8.02295 16.625ZM21.5229 10.25C21.5227 10.399 21.4634 10.5418 21.3581 10.6471C21.2527 10.7524 21.1099 10.8117 20.9609 10.812H11.5859C11.437 10.8117 11.2942 10.7524 11.1888 10.6471C11.0835 10.5418 11.0242 10.399 11.0239 10.25V8.75C11.0242 8.60103 11.0835 8.45824 11.1888 8.3529C11.2942 8.24756 11.437 8.18826 11.5859 8.188H20.9609C21.1101 8.188 21.2531 8.24718 21.3587 8.35254C21.4643 8.45791 21.5237 8.60086 21.5239 8.75L21.5229 10.25ZM21.5229 14.75C21.5227 14.899 21.4634 15.0418 21.3581 15.1471C21.2527 15.2524 21.1099 15.3117 20.9609 15.312H11.5859C11.437 15.3117 11.2942 15.2524 11.1888 15.1471C11.0835 15.0418 11.0242 14.899 11.0239 14.75V13.25C11.0242 13.101 11.0835 12.9582 11.1888 12.8529C11.2942 12.7476 11.437 12.6883 11.5859 12.688H20.9609C21.1101 12.688 21.2531 12.7472 21.3587 12.8525C21.4643 12.9579 21.5237 13.1009 21.5239 13.25L21.5229 14.75ZM21.5229 19.25C21.5227 19.399 21.4634 19.5418 21.3581 19.6471C21.2527 19.7524 21.1099 19.8117 20.9609 19.812H11.5859C11.437 19.8117 11.2942 19.7524 11.1888 19.6471C11.0835 19.5418 11.0242 19.399 11.0239 19.25V17.75C11.0242 17.601 11.0835 17.4582 11.1888 17.3529C11.2942 17.2476 11.437 17.1883 11.5859 17.188H20.9609C21.1101 17.188 21.2531 17.2472 21.3587 17.3525C21.4643 17.4579 21.5237 17.6009 21.5239 17.75L21.5229 19.25Z" fill="#171717"/>
</svg>
