<svg width="12" height="16" viewBox="0 0 12 16" fill="none" xmlns="http://www.w3.org/2000/svg">
<path d="M10.404 5.72601H9.72702V4.37101C9.72702 3.47272 9.37018 2.61122 8.73499 1.97604C8.09981 1.34085 7.23831 0.984009 6.34002 0.984009C5.44173 0.984009 4.58024 1.34085 3.94505 1.97604C3.30986 2.61122 2.95302 3.47272 2.95302 4.37101V5.72601H2.27602C1.91646 5.72707 1.57197 5.87058 1.318 6.12511C1.06403 6.37964 0.921284 6.72444 0.921021 7.08401V13.854C0.922076 14.2131 1.06517 14.5571 1.31906 14.811C1.57294 15.0649 1.91698 15.208 2.27602 15.209H10.405C10.7641 15.208 11.1081 15.0649 11.362 14.811C11.6159 14.5571 11.759 14.2131 11.76 13.854V7.08401C11.7598 6.72427 11.6169 6.37932 11.3627 6.12476C11.1085 5.8702 10.7638 5.7268 10.404 5.72601ZM6.34002 11.826C6.07203 11.826 5.81005 11.7465 5.58722 11.5977C5.36439 11.4488 5.19072 11.2371 5.08816 10.9895C4.98561 10.742 4.95877 10.4695 5.01106 10.2067C5.06334 9.94382 5.19239 9.70238 5.38189 9.51288C5.57139 9.32338 5.81283 9.19433 6.07567 9.14205C6.33852 9.08976 6.61096 9.1166 6.85856 9.21915C7.10615 9.32171 7.31777 9.49538 7.46666 9.71821C7.61555 9.94104 7.69502 10.203 7.69502 10.471C7.69291 10.8294 7.54935 11.1724 7.29558 11.4254C7.04181 11.6784 6.69837 11.821 6.34002 11.822V11.826ZM8.44002 5.72601H4.24002V4.37101C4.24002 3.81405 4.46127 3.27991 4.8551 2.88608C5.24892 2.49226 5.78307 2.27101 6.34002 2.27101C6.89697 2.27101 7.43112 2.49226 7.82494 2.88608C8.21877 3.27991 8.44002 3.81405 8.44002 4.37101V5.72601Z" fill="#171717"/>
</svg>
