<svg width="13" height="15" viewBox="0 0 13 15" fill="none" xmlns="http://www.w3.org/2000/svg">
<path d="M9.0479 3.082C9.0479 5.038 7.7779 6.899 6.3699 6.899C4.9619 6.899 3.69191 5.038 3.69191 3.082C3.65815 2.70992 3.70229 2.33489 3.82153 1.98082C3.94077 1.62675 4.13248 1.30141 4.38444 1.02555C4.63641 0.749694 4.94309 0.529368 5.28494 0.378623C5.62679 0.227879 5.99629 0.150024 6.3699 0.150024C6.74351 0.150024 7.11302 0.227879 7.45486 0.378623C7.79671 0.529368 8.1034 0.749694 8.35536 1.02555C8.60732 1.30141 8.79903 1.62675 8.91827 1.98082C9.03751 2.33489 9.08166 2.70992 9.0479 3.082Z" fill="#171717"/>
<path d="M10.603 9.30501C9.8211 8.6963 8.95201 8.20883 8.02495 7.85901C7.54871 8.22109 6.97273 8.4281 6.37495 8.45201C5.78505 8.36853 5.21805 8.16683 4.70795 7.85901C3.79343 8.23783 2.92677 8.72318 2.12595 9.30501C1.14091 10.8341 0.524391 12.5711 0.324951 14.379H12.416C12.2178 12.5689 11.5968 10.8308 10.603 9.30501Z" fill="#171717"/>
</svg>
